<?xml version="1.0" encoding="UTF-8" standalone="no"?>
<!DOCTYPE svg PUBLIC "-//W3C//DTD SVG 1.1//EN"
 "http://www.w3.org/Graphics/SVG/1.1/DTD/svg11.dtd">
<!-- Generated by graphviz version 7.1.0 (20230122.1345)
 -->
<!-- Title: snakemake_dag Pages: 1 -->
<svg width="1389pt" height="1124pt"
 viewBox="0.00 0.00 1388.52 1124.00" xmlns="http://www.w3.org/2000/svg" xmlns:xlink="http://www.w3.org/1999/xlink">
<g id="graph0" class="graph" transform="scale(1 1) rotate(0) translate(4 1120)">
<title>snakemake_dag</title>
<polygon fill="white" stroke="none" points="-4,4 -4,-1120 1384.52,-1120 1384.52,4 -4,4"/>
<!-- 0 -->
<g id="node1" class="node">
<title>0</title>
<path fill="none" stroke="#8fd856" stroke-width="2" d="M1087,-36C1087,-36 1057,-36 1057,-36 1051,-36 1045,-30 1045,-24 1045,-24 1045,-12 1045,-12 1045,-6 1051,0 1057,0 1057,0 1087,0 1087,0 1093,0 1099,-6 1099,-12 1099,-12 1099,-24 1099,-24 1099,-30 1093,-36 1087,-36"/>
<text text-anchor="middle" x="1072" y="-15.5" font-family="sans" font-size="10.00">all</text>
</g>
<!-- 1 -->
<g id="node2" class="node">
<title>1</title>
<path fill="none" stroke="#56d0d8" stroke-width="2" d="M881.5,-756C881.5,-756 816.5,-756 816.5,-756 810.5,-756 804.5,-750 804.5,-744 804.5,-744 804.5,-732 804.5,-732 804.5,-726 810.5,-720 816.5,-720 816.5,-720 881.5,-720 881.5,-720 887.5,-720 893.5,-726 893.5,-732 893.5,-732 893.5,-744 893.5,-744 893.5,-750 887.5,-756 881.5,-756"/>
<text text-anchor="middle" x="849" y="-735.5" font-family="sans" font-size="10.00">variant_counts</text>
</g>
<!-- 1&#45;&gt;0 -->
<g id="edge1" class="edge">
<title>1&#45;&gt;0</title>
<path fill="none" stroke="grey" stroke-width="2" d="M853.59,-719.41C861.52,-689.6 878.69,-627.38 897,-576 937.44,-462.49 962.81,-439.55 997,-324 1026.45,-224.46 1053.57,-104.3 1065.55,-49.24"/>
<polygon fill="grey" stroke="grey" stroke-width="2" points="1068.93,-50.16 1067.62,-39.65 1062.08,-48.68 1068.93,-50.16"/>
</g>
<!-- 10 -->
<g id="node11" class="node">
<title>10</title>
<path fill="none" stroke="#d8cb56" stroke-width="2" d="M1141,-684C1141,-684 1033,-684 1033,-684 1027,-684 1021,-678 1021,-672 1021,-672 1021,-660 1021,-660 1021,-654 1027,-648 1033,-648 1033,-648 1141,-648 1141,-648 1147,-648 1153,-654 1153,-660 1153,-660 1153,-672 1153,-672 1153,-678 1147,-684 1141,-684"/>
<text text-anchor="middle" x="1087" y="-663.5" font-family="sans" font-size="10.00">analyze_variant_counts</text>
</g>
<!-- 1&#45;&gt;10 -->
<g id="edge18" class="edge">
<title>1&#45;&gt;10</title>
<path fill="none" stroke="grey" stroke-width="2" d="M894.33,-723.67C928.04,-713.75 974.75,-700.01 1013.74,-688.55"/>
<polygon fill="grey" stroke="grey" stroke-width="2" points="1014.59,-691.95 1023.2,-685.77 1012.62,-685.23 1014.59,-691.95"/>
</g>
<!-- 13 -->
<g id="node14" class="node">
<title>13</title>
<path fill="none" stroke="#56a9d8" stroke-width="2" d="M674,-540C674,-540 624,-540 624,-540 618,-540 612,-534 612,-528 612,-528 612,-516 612,-516 612,-510 618,-504 624,-504 624,-504 674,-504 674,-504 680,-504 686,-510 686,-516 686,-516 686,-528 686,-528 686,-534 680,-540 674,-540"/>
<text text-anchor="middle" x="649" y="-519.5" font-family="sans" font-size="10.00">func_scores</text>
</g>
<!-- 1&#45;&gt;13 -->
<g id="edge25" class="edge">
<title>1&#45;&gt;13</title>
<path fill="none" stroke="grey" stroke-width="2" d="M826.46,-719.15C814.36,-709.23 799.42,-696.41 787,-684 742.81,-639.87 696.59,-583.53 670.43,-550.54"/>
<polygon fill="grey" stroke="grey" stroke-width="2" points="673.48,-548.76 664.55,-543.07 667.99,-553.09 673.48,-548.76"/>
</g>
<!-- 14 -->
<g id="node15" class="node">
<title>14</title>
<path fill="none" stroke="#a7d856" stroke-width="2" d="M756,-108C756,-108 702,-108 702,-108 696,-108 690,-102 690,-96 690,-96 690,-84 690,-84 690,-78 696,-72 702,-72 702,-72 756,-72 756,-72 762,-72 768,-78 768,-84 768,-84 768,-96 768,-96 768,-102 762,-108 756,-108"/>
<text text-anchor="middle" x="729" y="-87.5" font-family="sans" font-size="10.00">sphinx_build</text>
</g>
<!-- 1&#45;&gt;14 -->
<g id="edge30" class="edge">
<title>1&#45;&gt;14</title>
<path fill="none" stroke="grey" stroke-width="2" d="M849.09,-719.39C849.56,-689.55 851.93,-627.29 863,-576 898.4,-411.95 1019.96,-378.24 977,-216 967.57,-180.4 965.27,-166.34 936,-144 891.18,-109.79 826.61,-97.52 781.54,-93.2"/>
<polygon fill="grey" stroke="grey" stroke-width="2" points="782.08,-89.73 771.82,-92.39 781.5,-96.7 782.08,-89.73"/>
</g>
<!-- 20 -->
<g id="node21" class="node">
<title>20</title>
<path fill="none" stroke="#56d86b" stroke-width="2" d="M671.5,-180C671.5,-180 624.5,-180 624.5,-180 618.5,-180 612.5,-174 612.5,-168 612.5,-168 612.5,-156 612.5,-156 612.5,-150 618.5,-144 624.5,-144 624.5,-144 671.5,-144 671.5,-144 677.5,-144 683.5,-150 683.5,-156 683.5,-156 683.5,-168 683.5,-168 683.5,-174 677.5,-180 671.5,-180"/>
<text text-anchor="middle" x="648" y="-159.5" font-family="sans" font-size="10.00">docs_index</text>
</g>
<!-- 1&#45;&gt;20 -->
<g id="edge55" class="edge">
<title>1&#45;&gt;20</title>
<path fill="none" stroke="grey" stroke-width="2" d="M838.55,-719.02C833.36,-709.06 827.64,-696.24 825,-684 803.11,-582.59 839,-554.74 839,-451 839,-451 839,-451 839,-377 839,-300.32 830.61,-270.82 777,-216 755.44,-193.96 723.42,-180.73 696.67,-173"/>
<polygon fill="grey" stroke="grey" stroke-width="2" points="697.91,-169.71 687.34,-170.51 696.1,-176.47 697.91,-169.71"/>
</g>
<!-- 2 -->
<g id="node3" class="node">
<title>2</title>
<path fill="none" stroke="#68d856" stroke-width="2" d="M910.5,-828C910.5,-828 841.5,-828 841.5,-828 835.5,-828 829.5,-822 829.5,-816 829.5,-816 829.5,-804 829.5,-804 829.5,-798 835.5,-792 841.5,-792 841.5,-792 910.5,-792 910.5,-792 916.5,-792 922.5,-798 922.5,-804 922.5,-804 922.5,-816 922.5,-816 922.5,-822 916.5,-828 910.5,-828"/>
<text text-anchor="middle" x="876" y="-807.5" font-family="sans" font-size="10.00">count_barcodes</text>
</g>
<!-- 2&#45;&gt;1 -->
<g id="edge5" class="edge">
<title>2&#45;&gt;1</title>
<path fill="none" stroke="grey" stroke-width="2" d="M869.19,-791.34C866.55,-784.51 863.46,-776.5 860.51,-768.83"/>
<polygon fill="grey" stroke="grey" stroke-width="2" points="863.86,-767.8 856.99,-759.73 857.33,-770.32 863.86,-767.8"/>
</g>
<!-- 2&#45;&gt;10 -->
<g id="edge17" class="edge">
<title>2&#45;&gt;10</title>
<path fill="none" stroke="grey" stroke-width="2" d="M898.7,-791.22C922.65,-772.72 961.74,-743.26 997,-720 1011.96,-710.13 1028.78,-699.99 1043.79,-691.25"/>
<polygon fill="grey" stroke="grey" stroke-width="2" points="1045.32,-694.4 1052.24,-686.38 1041.83,-688.34 1045.32,-694.4"/>
</g>
<!-- 3 -->
<g id="node4" class="node">
<title>3</title>
<path fill="none" stroke="#d8bc56" stroke-width="2" d="M823,-900C823,-900 727,-900 727,-900 721,-900 715,-894 715,-888 715,-888 715,-876 715,-876 715,-870 721,-864 727,-864 727,-864 823,-864 823,-864 829,-864 835,-870 835,-876 835,-876 835,-888 835,-888 835,-894 829,-900 823,-900"/>
<text text-anchor="middle" x="775" y="-879.5" font-family="sans" font-size="10.00">build_codon_variants</text>
</g>
<!-- 3&#45;&gt;1 -->
<g id="edge6" class="edge">
<title>3&#45;&gt;1</title>
<path fill="none" stroke="grey" stroke-width="2" d="M784.12,-863.25C793.36,-845.26 808.11,-816.66 821,-792 825.05,-784.25 829.45,-775.88 833.55,-768.13"/>
<polygon fill="grey" stroke="grey" stroke-width="2" points="836.63,-769.8 838.21,-759.32 830.44,-766.52 836.63,-769.8"/>
</g>
<!-- 3&#45;&gt;2 -->
<g id="edge8" class="edge">
<title>3&#45;&gt;2</title>
<path fill="none" stroke="grey" stroke-width="2" d="M800.75,-863.15C812.62,-854.93 826.92,-845.02 839.84,-836.06"/>
<polygon fill="grey" stroke="grey" stroke-width="2" points="841.59,-839.11 847.81,-830.54 837.6,-833.36 841.59,-839.11"/>
</g>
<!-- 3&#45;&gt;10 -->
<g id="edge21" class="edge">
<title>3&#45;&gt;10</title>
<path fill="none" stroke="grey" stroke-width="2" d="M835.78,-867.77C866.22,-859.39 902.72,-846.56 932,-828 988.87,-791.95 1039.87,-730.79 1066.82,-695.13"/>
<polygon fill="grey" stroke="grey" stroke-width="2" points="1069.43,-697.48 1072.59,-687.36 1063.81,-693.3 1069.43,-697.48"/>
</g>
<!-- 3&#45;&gt;13 -->
<g id="edge26" class="edge">
<title>3&#45;&gt;13</title>
<path fill="none" stroke="grey" stroke-width="2" d="M765.46,-863.13C760.24,-852.99 753.87,-839.96 749,-828 708.93,-729.53 673.05,-608.45 657.36,-553.14"/>
<polygon fill="grey" stroke="grey" stroke-width="2" points="660.8,-552.44 654.73,-543.76 654.07,-554.33 660.8,-552.44"/>
</g>
<!-- 3&#45;&gt;14 -->
<g id="edge33" class="edge">
<title>3&#45;&gt;14</title>
<path fill="none" stroke="grey" stroke-width="2" d="M835.61,-879.07C957.56,-871.62 1221,-835.97 1221,-667 1221,-667 1221,-667 1221,-233 1221,-168.37 1165.55,-169.12 1106,-144 997.13,-98.08 856.47,-90.45 781.51,-90.02"/>
<polygon fill="grey" stroke="grey" stroke-width="2" points="781.77,-86.52 771.77,-90.02 781.77,-93.52 781.77,-86.52"/>
</g>
<!-- 17 -->
<g id="node18" class="node">
<title>17</title>
<path fill="none" stroke="#d87d56" stroke-width="2" d="M426.5,-324C426.5,-324 371.5,-324 371.5,-324 365.5,-324 359.5,-318 359.5,-312 359.5,-312 359.5,-300 359.5,-300 359.5,-294 365.5,-288 371.5,-288 371.5,-288 426.5,-288 426.5,-288 432.5,-288 438.5,-294 438.5,-300 438.5,-300 438.5,-312 438.5,-312 438.5,-318 432.5,-324 426.5,-324"/>
<text text-anchor="middle" x="399" y="-303.5" font-family="sans" font-size="10.00">make_nblink</text>
</g>
<!-- 3&#45;&gt;17 -->
<g id="edge48" class="edge">
<title>3&#45;&gt;17</title>
<path fill="none" stroke="grey" stroke-width="2" d="M726.14,-863.04C655.97,-833.72 535,-768.46 535,-667 535,-667 535,-667 535,-593 535,-489.53 461.5,-383.63 422.57,-334.79"/>
<polygon fill="grey" stroke="grey" stroke-width="2" points="425.53,-332.89 416.51,-327.33 420.1,-337.3 425.53,-332.89"/>
</g>
<!-- 3&#45;&gt;20 -->
<g id="edge58" class="edge">
<title>3&#45;&gt;20</title>
<path fill="none" stroke="grey" stroke-width="2" d="M772.51,-863.11C769,-836.22 763,-783.78 763,-739 763,-739 763,-739 763,-521 763,-449.17 786.24,-431.23 777,-360 768.48,-294.36 779.1,-268.67 739,-216 727.86,-201.37 711.43,-190.05 695.58,-181.71"/>
<polygon fill="grey" stroke="grey" stroke-width="2" points="697.46,-178.73 686.94,-177.48 694.39,-185.02 697.46,-178.73"/>
</g>
<!-- 4 -->
<g id="node5" class="node">
<title>4</title>
<path fill="none" stroke="#5692d8" stroke-width="2" d="M455,-972C455,-972 345,-972 345,-972 339,-972 333,-966 333,-960 333,-960 333,-948 333,-948 333,-942 339,-936 345,-936 345,-936 455,-936 455,-936 461,-936 467,-942 467,-948 467,-948 467,-960 467,-960 467,-966 461,-972 455,-972"/>
<text text-anchor="middle" x="400" y="-951.5" font-family="sans" font-size="10.00">build_pacbio_consensus</text>
</g>
<!-- 4&#45;&gt;3 -->
<g id="edge10" class="edge">
<title>4&#45;&gt;3</title>
<path fill="none" stroke="grey" stroke-width="2" d="M467.91,-940.32C533.84,-928.02 633.63,-909.39 701.42,-896.74"/>
<polygon fill="grey" stroke="grey" stroke-width="2" points="701.95,-900.2 711.13,-894.92 700.66,-893.32 701.95,-900.2"/>
</g>
<!-- 4&#45;&gt;14 -->
<g id="edge38" class="edge">
<title>4&#45;&gt;14</title>
<path fill="none" stroke="grey" stroke-width="2" d="M380.54,-935.05C305.35,-863.63 38,-589.83 38,-307 38,-307 38,-307 38,-233 38,-182.95 63.03,-167.91 107,-144 156.46,-117.1 535.44,-98.95 676.41,-93.07"/>
<polygon fill="grey" stroke="grey" stroke-width="2" points="676.42,-96.57 686.26,-92.66 676.13,-89.58 676.42,-96.57"/>
</g>
<!-- 4&#45;&gt;17 -->
<g id="edge52" class="edge">
<title>4&#45;&gt;17</title>
<path fill="none" stroke="grey" stroke-width="2" d="M387.63,-935.09C370.87,-909.03 343,-858.55 343,-811 343,-811 343,-811 343,-737 343,-601.36 298.97,-563.56 332,-432 340.96,-396.33 362.27,-359.74 378.47,-335.44"/>
<polygon fill="grey" stroke="grey" stroke-width="2" points="381.23,-337.59 384,-327.37 375.46,-333.64 381.23,-337.59"/>
</g>
<!-- 4&#45;&gt;20 -->
<g id="edge63" class="edge">
<title>4&#45;&gt;20</title>
<path fill="none" stroke="grey" stroke-width="2" d="M406.31,-935.19C421.53,-890.63 459,-770.42 459,-667 459,-667 459,-667 459,-593 459,-507.59 585.54,-274.05 631.54,-191.98"/>
<polygon fill="grey" stroke="grey" stroke-width="2" points="634.5,-193.87 636.35,-183.43 628.4,-190.43 634.5,-193.87"/>
</g>
<!-- 5 -->
<g id="node6" class="node">
<title>5</title>
<path fill="none" stroke="#d89556" stroke-width="2" d="M311.5,-1044C311.5,-1044 222.5,-1044 222.5,-1044 216.5,-1044 210.5,-1038 210.5,-1032 210.5,-1032 210.5,-1020 210.5,-1020 210.5,-1014 216.5,-1008 222.5,-1008 222.5,-1008 311.5,-1008 311.5,-1008 317.5,-1008 323.5,-1014 323.5,-1020 323.5,-1020 323.5,-1032 323.5,-1032 323.5,-1038 317.5,-1044 311.5,-1044"/>
<text text-anchor="middle" x="267" y="-1023.5" font-family="sans" font-size="10.00">analyze_pacbio_ccs</text>
</g>
<!-- 5&#45;&gt;4 -->
<g id="edge12" class="edge">
<title>5&#45;&gt;4</title>
<path fill="none" stroke="grey" stroke-width="2" d="M300.91,-1007.15C317.24,-998.56 337.07,-988.12 354.68,-978.85"/>
<polygon fill="grey" stroke="grey" stroke-width="2" points="356.26,-981.98 363.48,-974.22 353,-975.78 356.26,-981.98"/>
</g>
<!-- 5&#45;&gt;14 -->
<g id="edge34" class="edge">
<title>5&#45;&gt;14</title>
<path fill="none" stroke="grey" stroke-width="2" d="M209.72,-1019.78C131.27,-1009.14 0,-977.24 0,-883 0,-883 0,-883 0,-233 0,-186.96 13.9,-168.3 53,-144 105.47,-111.4 526.41,-96.63 676.27,-92.36"/>
<polygon fill="grey" stroke="grey" stroke-width="2" points="676.15,-95.87 686.05,-92.09 675.96,-88.87 676.15,-95.87"/>
</g>
<!-- 5&#45;&gt;17 -->
<g id="edge49" class="edge">
<title>5&#45;&gt;17</title>
<path fill="none" stroke="grey" stroke-width="2" d="M258.94,-1007.03C247.79,-980.48 229,-928.94 229,-883 229,-883 229,-883 229,-449 229,-386.83 296.8,-346.55 346.76,-325.31"/>
<polygon fill="grey" stroke="grey" stroke-width="2" points="347.97,-328.6 355.91,-321.58 345.33,-322.11 347.97,-328.6"/>
</g>
<!-- 5&#45;&gt;20 -->
<g id="edge59" class="edge">
<title>5&#45;&gt;20</title>
<path fill="none" stroke="grey" stroke-width="2" d="M275.06,-1007.03C286.21,-980.48 305,-928.94 305,-883 305,-883 305,-883 305,-737 305,-600.11 388.43,-587.61 455,-468 517.31,-356.05 517.84,-318.29 595,-216 601.87,-206.89 610.25,-197.8 618.31,-189.79"/>
<polygon fill="grey" stroke="grey" stroke-width="2" points="620.54,-192.5 625.32,-183.04 615.68,-187.46 620.54,-192.5"/>
</g>
<!-- 6 -->
<g id="node7" class="node">
<title>6</title>
<path fill="none" stroke="#59d856" stroke-width="2" d="M320.5,-1116C320.5,-1116 213.5,-1116 213.5,-1116 207.5,-1116 201.5,-1110 201.5,-1104 201.5,-1104 201.5,-1092 201.5,-1092 201.5,-1086 207.5,-1080 213.5,-1080 213.5,-1080 320.5,-1080 320.5,-1080 326.5,-1080 332.5,-1086 332.5,-1092 332.5,-1092 332.5,-1104 332.5,-1104 332.5,-1110 326.5,-1116 320.5,-1116"/>
<text text-anchor="middle" x="267" y="-1095.5" font-family="sans" font-size="10.00">align_parse_PacBio_ccs</text>
</g>
<!-- 6&#45;&gt;5 -->
<g id="edge14" class="edge">
<title>6&#45;&gt;5</title>
<path fill="none" stroke="grey" stroke-width="2" d="M267,-1079.34C267,-1072.75 267,-1065.08 267,-1057.67"/>
<polygon fill="grey" stroke="grey" stroke-width="2" points="270.5,-1057.93 267,-1047.93 263.5,-1057.93 270.5,-1057.93"/>
</g>
<!-- 7 -->
<g id="node8" class="node">
<title>7</title>
<path fill="none" stroke="#56d892" stroke-width="2" d="M765,-1044C765,-1044 697,-1044 697,-1044 691,-1044 685,-1038 685,-1032 685,-1032 685,-1020 685,-1020 685,-1014 691,-1008 697,-1008 697,-1008 765,-1008 765,-1008 771,-1008 777,-1014 777,-1020 777,-1020 777,-1032 777,-1032 777,-1038 771,-1044 765,-1044"/>
<text text-anchor="middle" x="731" y="-1023.5" font-family="sans" font-size="10.00">gene_sequence</text>
</g>
<!-- 7&#45;&gt;1 -->
<g id="edge7" class="edge">
<title>7&#45;&gt;1</title>
<path fill="none" stroke="grey" stroke-width="2" d="M760.73,-1007.18C807.61,-977.11 896.99,-911.34 932,-828 938.2,-813.25 939.69,-806.03 932,-792 925.72,-780.53 915.77,-771.18 904.92,-763.71"/>
<polygon fill="grey" stroke="grey" stroke-width="2" points="906.79,-760.75 896.45,-758.46 903.1,-766.7 906.79,-760.75"/>
</g>
<!-- 7&#45;&gt;3 -->
<g id="edge11" class="edge">
<title>7&#45;&gt;3</title>
<path fill="none" stroke="grey" stroke-width="2" d="M740.62,-1007.28C745.78,-997.17 751.9,-984.15 756,-972 762.42,-952.98 767.15,-930.92 770.28,-913.52"/>
<polygon fill="grey" stroke="grey" stroke-width="2" points="773.72,-914.14 771.95,-903.7 766.82,-912.97 773.72,-914.14"/>
</g>
<!-- 7&#45;&gt;4 -->
<g id="edge13" class="edge">
<title>7&#45;&gt;4</title>
<path fill="none" stroke="grey" stroke-width="2" d="M684.28,-1015.12C631.32,-1003.92 544.06,-985.47 480.16,-971.95"/>
<polygon fill="grey" stroke="grey" stroke-width="2" points="481.18,-968.59 470.68,-969.95 479.74,-975.44 481.18,-968.59"/>
</g>
<!-- 8 -->
<g id="node9" class="node">
<title>8</title>
<path fill="none" stroke="#b6d856" stroke-width="2" d="M734.5,-972C734.5,-972 639.5,-972 639.5,-972 633.5,-972 627.5,-966 627.5,-960 627.5,-960 627.5,-948 627.5,-948 627.5,-942 633.5,-936 639.5,-936 639.5,-936 734.5,-936 734.5,-936 740.5,-936 746.5,-942 746.5,-948 746.5,-948 746.5,-960 746.5,-960 746.5,-966 740.5,-972 734.5,-972"/>
<text text-anchor="middle" x="687" y="-951.5" font-family="sans" font-size="10.00">site_numbering_map</text>
</g>
<!-- 7&#45;&gt;8 -->
<g id="edge15" class="edge">
<title>7&#45;&gt;8</title>
<path fill="none" stroke="grey" stroke-width="2" d="M719.9,-1007.34C715.4,-1000.18 710.09,-991.73 705.06,-983.73"/>
<polygon fill="grey" stroke="grey" stroke-width="2" points="708.15,-982.07 699.86,-975.46 702.22,-985.79 708.15,-982.07"/>
</g>
<!-- 7&#45;&gt;10 -->
<g id="edge20" class="edge">
<title>7&#45;&gt;10</title>
<path fill="none" stroke="grey" stroke-width="2" d="M777.67,-1020.38C893.15,-1007.65 1183,-967.31 1183,-883 1183,-883 1183,-883 1183,-809 1183,-762.15 1146.69,-719.22 1118.73,-693.1"/>
<polygon fill="grey" stroke="grey" stroke-width="2" points="1121.29,-690.7 1111.52,-686.61 1116.61,-695.9 1121.29,-690.7"/>
</g>
<!-- 7&#45;&gt;13 -->
<g id="edge28" class="edge">
<title>7&#45;&gt;13</title>
<path fill="none" stroke="grey" stroke-width="2" d="M684.33,-1025.1C643.4,-1022.39 586.04,-1011.2 557,-972 459.01,-839.72 579.48,-628.01 629.32,-551.64"/>
<polygon fill="grey" stroke="grey" stroke-width="2" points="632.11,-553.76 634.72,-543.5 626.27,-549.89 632.11,-553.76"/>
</g>
<!-- 7&#45;&gt;14 -->
<g id="edge41" class="edge">
<title>7&#45;&gt;14</title>
<path fill="none" stroke="grey" stroke-width="2" d="M777.8,-1023.26C913.41,-1016.98 1297,-989.75 1297,-883 1297,-883 1297,-883 1297,-233 1297,-178.61 1261.7,-168.23 1213,-144 1138.35,-106.86 891.34,-95.49 781.94,-92.22"/>
<polygon fill="grey" stroke="grey" stroke-width="2" points="782.12,-88.73 772.02,-91.94 781.92,-95.72 782.12,-88.73"/>
</g>
<!-- 7&#45;&gt;20 -->
<g id="edge65" class="edge">
<title>7&#45;&gt;20</title>
<path fill="none" stroke="grey" stroke-width="2" d="M684.17,-1011.73C661.97,-1003.41 636.54,-990.65 619,-972 518.99,-865.64 497,-813 497,-667 497,-667 497,-667 497,-593 497,-431.58 571.56,-405.33 622,-252 628.38,-232.6 634.82,-210.57 639.7,-193.28"/>
<polygon fill="grey" stroke="grey" stroke-width="2" points="643.04,-194.33 642.36,-183.75 636.3,-192.45 643.04,-194.33"/>
</g>
<!-- 8&#45;&gt;3 -->
<g id="edge9" class="edge">
<title>8&#45;&gt;3</title>
<path fill="none" stroke="grey" stroke-width="2" d="M709.21,-935.34C719.24,-927.36 731.29,-917.77 742.33,-908.99"/>
<polygon fill="grey" stroke="grey" stroke-width="2" points="744.48,-911.75 750.13,-902.79 740.12,-906.27 744.48,-911.75"/>
</g>
<!-- 8&#45;&gt;10 -->
<g id="edge19" class="edge">
<title>8&#45;&gt;10</title>
<path fill="none" stroke="grey" stroke-width="2" d="M747.35,-935.74C777.01,-926.48 812.95,-914.08 844,-900 902.04,-873.68 916.84,-866 968,-828 1005.61,-800.06 1017.4,-793.86 1045,-756 1058.2,-737.89 1068.9,-714.98 1076.2,-696.93"/>
<polygon fill="grey" stroke="grey" stroke-width="2" points="1079.46,-698.21 1079.8,-687.62 1072.93,-695.68 1079.46,-698.21"/>
</g>
<!-- 12 -->
<g id="node13" class="node">
<title>12</title>
<path fill="none" stroke="#56d8d0" stroke-width="2" d="M434.5,-468C434.5,-468 353.5,-468 353.5,-468 347.5,-468 341.5,-462 341.5,-456 341.5,-456 341.5,-444 341.5,-444 341.5,-438 347.5,-432 353.5,-432 353.5,-432 434.5,-432 434.5,-432 440.5,-432 446.5,-438 446.5,-444 446.5,-444 446.5,-456 446.5,-456 446.5,-462 440.5,-468 434.5,-468"/>
<text text-anchor="middle" x="394" y="-447.5" font-family="sans" font-size="10.00">fit_globalepistasis</text>
</g>
<!-- 8&#45;&gt;12 -->
<g id="edge24" class="edge">
<title>8&#45;&gt;12</title>
<path fill="none" stroke="grey" stroke-width="2" d="M650.01,-935.14C576.92,-896.95 421,-799.91 421,-667 421,-667 421,-667 421,-593 421,-553.79 410.94,-509.54 403.1,-481.02"/>
<polygon fill="grey" stroke="grey" stroke-width="2" points="406.54,-480.29 400.43,-471.64 399.81,-482.21 406.54,-480.29"/>
</g>
<!-- 8&#45;&gt;13 -->
<g id="edge27" class="edge">
<title>8&#45;&gt;13</title>
<path fill="none" stroke="grey" stroke-width="2" d="M670.13,-935.35C647.74,-909.98 611,-860.77 611,-811 611,-811 611,-811 611,-665 611,-625.16 625.13,-581.11 636.15,-552.8"/>
<polygon fill="grey" stroke="grey" stroke-width="2" points="639.3,-554.36 639.81,-543.77 632.81,-551.73 639.3,-554.36"/>
</g>
<!-- 8&#45;&gt;14 -->
<g id="edge37" class="edge">
<title>8&#45;&gt;14</title>
<path fill="none" stroke="grey" stroke-width="2" d="M747.4,-950.48C894.44,-940.8 1259,-893.91 1259,-667 1259,-667 1259,-667 1259,-233 1259,-175.14 1216.42,-168.49 1164,-144 1097.21,-112.8 882.25,-98.46 781.73,-93.34"/>
<polygon fill="grey" stroke="grey" stroke-width="2" points="782.09,-89.85 771.93,-92.85 781.75,-96.85 782.09,-89.85"/>
</g>
<!-- 8&#45;&gt;20 -->
<g id="edge62" class="edge">
<title>8&#45;&gt;20</title>
<path fill="none" stroke="grey" stroke-width="2" d="M687,-935.07C687,-908.13 687,-855.62 687,-811 687,-811 687,-811 687,-737 687,-567.54 780.13,-525.56 744,-360 729.96,-295.66 691.02,-228.26 667.27,-191.36"/>
<polygon fill="grey" stroke="grey" stroke-width="2" points="670.49,-189.9 662.09,-183.45 664.64,-193.73 670.49,-189.9"/>
</g>
<!-- 9 -->
<g id="node10" class="node">
<title>9</title>
<path fill="none" stroke="#56d8b9" stroke-width="2" d="M1066.5,-612C1066.5,-612 917.5,-612 917.5,-612 911.5,-612 905.5,-606 905.5,-600 905.5,-600 905.5,-588 905.5,-588 905.5,-582 911.5,-576 917.5,-576 917.5,-576 1066.5,-576 1066.5,-576 1072.5,-576 1078.5,-582 1078.5,-588 1078.5,-588 1078.5,-600 1078.5,-600 1078.5,-606 1072.5,-612 1066.5,-612"/>
<text text-anchor="middle" x="992" y="-591.5" font-family="sans" font-size="10.00">check_adequate_variant_counts</text>
</g>
<!-- 9&#45;&gt;0 -->
<g id="edge4" class="edge">
<title>9&#45;&gt;0</title>
<path fill="none" stroke="grey" stroke-width="2" d="M1023.86,-575.13C1098,-531.47 1280.92,-411.19 1349,-252 1380.46,-178.45 1399.98,-133.66 1349,-72 1319.46,-36.27 1182.04,-24.4 1112.52,-20.64"/>
<polygon fill="grey" stroke="grey" stroke-width="2" points="1112.75,-17.15 1102.59,-20.14 1112.4,-24.14 1112.75,-17.15"/>
</g>
<!-- 9&#45;&gt;13 -->
<g id="edge29" class="edge">
<title>9&#45;&gt;13</title>
<path fill="none" stroke="grey" stroke-width="2" d="M904.56,-575.15C839.65,-561.91 753.39,-544.31 699.55,-533.32"/>
<polygon fill="grey" stroke="grey" stroke-width="2" points="700.38,-529.91 689.88,-531.34 698.98,-536.77 700.38,-529.91"/>
</g>
<!-- 10&#45;&gt;9 -->
<g id="edge16" class="edge">
<title>10&#45;&gt;9</title>
<path fill="none" stroke="grey" stroke-width="2" d="M1063.03,-647.34C1051.97,-639.19 1038.65,-629.37 1026.54,-620.45"/>
<polygon fill="grey" stroke="grey" stroke-width="2" points="1028.86,-617.81 1018.73,-614.7 1024.71,-623.45 1028.86,-617.81"/>
</g>
<!-- 10&#45;&gt;14 -->
<g id="edge35" class="edge">
<title>10&#45;&gt;14</title>
<path fill="none" stroke="grey" stroke-width="2" d="M1109.27,-647.41C1137.62,-622.85 1183,-575.37 1183,-523 1183,-523 1183,-523 1183,-233 1183,-149.72 901.2,-109.52 781.63,-96.22"/>
<polygon fill="grey" stroke="grey" stroke-width="2" points="782.22,-92.76 771.9,-95.16 781.46,-99.72 782.22,-92.76"/>
</g>
<!-- 10&#45;&gt;17 -->
<g id="edge50" class="edge">
<title>10&#45;&gt;17</title>
<path fill="none" stroke="grey" stroke-width="2" d="M1092.79,-647.2C1097.91,-627.87 1102.52,-596.96 1088,-576 958.22,-388.73 819.53,-480.65 608,-396 554.18,-374.46 493.26,-348.32 451.14,-329.95"/>
<polygon fill="grey" stroke="grey" stroke-width="2" points="452.58,-326.76 442.01,-325.97 449.78,-333.18 452.58,-326.76"/>
</g>
<!-- 10&#45;&gt;20 -->
<g id="edge60" class="edge">
<title>10&#45;&gt;20</title>
<path fill="none" stroke="grey" stroke-width="2" d="M1099.59,-647.13C1116.64,-621.1 1145,-570.67 1145,-523 1145,-523 1145,-523 1145,-449 1145,-294.29 981.23,-345.54 858,-252 838.15,-236.93 836.85,-228 815,-216 777.76,-195.55 731.45,-181.64 697.05,-173.22"/>
<polygon fill="grey" stroke="grey" stroke-width="2" points="697.98,-169.84 687.44,-170.95 696.37,-176.66 697.98,-169.84"/>
</g>
<!-- 11 -->
<g id="node12" class="node">
<title>11</title>
<path fill="none" stroke="#d86e56" stroke-width="2" d="M189,-396C189,-396 121,-396 121,-396 115,-396 109,-390 109,-384 109,-384 109,-372 109,-372 109,-366 115,-360 121,-360 121,-360 189,-360 189,-360 195,-360 201,-366 201,-372 201,-372 201,-384 201,-384 201,-390 195,-396 189,-396"/>
<text text-anchor="middle" x="155" y="-375.5" font-family="sans" font-size="10.00">avg_muteffects</text>
</g>
<!-- 11&#45;&gt;0 -->
<g id="edge3" class="edge">
<title>11&#45;&gt;0</title>
<path fill="none" stroke="grey" stroke-width="2" d="M146.3,-359.1C134.27,-332.63 114,-281.19 114,-235 114,-235 114,-235 114,-161 114,-66.78 848.46,-28.69 1031.2,-20.67"/>
<polygon fill="grey" stroke="grey" stroke-width="2" points="1031.24,-24.17 1041.08,-20.25 1030.94,-17.18 1031.24,-24.17"/>
</g>
<!-- 11&#45;&gt;14 -->
<g id="edge32" class="edge">
<title>11&#45;&gt;14</title>
<path fill="none" stroke="grey" stroke-width="2" d="M152.08,-359.03C147.92,-327.55 143.57,-261.45 171,-216 201,-166.29 225.47,-163.94 280,-144 351.77,-117.75 574.12,-100.77 676.46,-94.15"/>
<polygon fill="grey" stroke="grey" stroke-width="2" points="676.43,-97.65 686.19,-93.53 675.98,-90.67 676.43,-97.65"/>
</g>
<!-- 11&#45;&gt;17 -->
<g id="edge47" class="edge">
<title>11&#45;&gt;17</title>
<path fill="none" stroke="grey" stroke-width="2" d="M201.83,-363.7C206.28,-362.45 210.73,-361.2 215,-360 272.73,-343.83 287.51,-341 345,-324 345.42,-323.88 345.83,-323.75 346.25,-323.63"/>
<polygon fill="grey" stroke="grey" stroke-width="2" points="347.2,-327 355.75,-320.75 345.17,-320.3 347.2,-327"/>
</g>
<!-- 18 -->
<g id="node19" class="node">
<title>18</title>
<path fill="none" stroke="#80d856" stroke-width="2" d="M299.5,-252C299.5,-252 192.5,-252 192.5,-252 186.5,-252 180.5,-246 180.5,-240 180.5,-240 180.5,-228 180.5,-228 180.5,-222 186.5,-216 192.5,-216 192.5,-216 299.5,-216 299.5,-216 305.5,-216 311.5,-222 311.5,-228 311.5,-228 311.5,-240 311.5,-240 311.5,-246 305.5,-252 299.5,-252"/>
<text text-anchor="middle" x="246" y="-231.5" font-family="sans" font-size="10.00">format_muteffects_plot</text>
</g>
<!-- 11&#45;&gt;18 -->
<g id="edge54" class="edge">
<title>11&#45;&gt;18</title>
<path fill="none" stroke="grey" stroke-width="2" d="M166.53,-359.02C181.91,-335.01 209.33,-292.21 227.6,-263.72"/>
<polygon fill="grey" stroke="grey" stroke-width="2" points="230.49,-265.69 232.94,-255.39 224.59,-261.92 230.49,-265.69"/>
</g>
<!-- 11&#45;&gt;20 -->
<g id="edge57" class="edge">
<title>11&#45;&gt;20</title>
<path fill="none" stroke="grey" stroke-width="2" d="M192.91,-359.15C232.06,-340.86 295.01,-311.79 350,-288 388.78,-271.22 403.15,-275.9 438,-252 456.15,-239.55 453.28,-227.56 472,-216 483.06,-209.17 551.34,-189.56 599.52,-176.21"/>
<polygon fill="grey" stroke="grey" stroke-width="2" points="600.27,-179.63 608.98,-173.6 598.41,-172.89 600.27,-179.63"/>
</g>
<!-- 12&#45;&gt;11 -->
<g id="edge22" class="edge">
<title>12&#45;&gt;11</title>
<path fill="none" stroke="grey" stroke-width="2" d="M340.66,-433.38C303.13,-422.38 252.88,-407.67 214.12,-396.32"/>
<polygon fill="grey" stroke="grey" stroke-width="2" points="215.2,-392.99 204.62,-393.53 213.23,-399.7 215.2,-392.99"/>
</g>
<!-- 12&#45;&gt;14 -->
<g id="edge43" class="edge">
<title>12&#45;&gt;14</title>
<path fill="none" stroke="grey" stroke-width="2" d="M340.74,-446.11C265.76,-440.95 134.38,-427.57 100,-396 69.83,-368.29 76,-347.97 76,-307 76,-307 76,-307 76,-233 76,-110.4 521.04,-93.45 676.31,-91.26"/>
<polygon fill="grey" stroke="grey" stroke-width="2" points="676.15,-94.77 686.11,-91.14 676.07,-87.77 676.15,-94.77"/>
</g>
<!-- 12&#45;&gt;17 -->
<g id="edge53" class="edge">
<title>12&#45;&gt;17</title>
<path fill="none" stroke="grey" stroke-width="2" d="M389.8,-431.24C386.12,-413.25 381.8,-384.64 385,-360 385.97,-352.57 387.66,-344.69 389.55,-337.35"/>
<polygon fill="grey" stroke="grey" stroke-width="2" points="392.89,-338.41 392.21,-327.84 386.14,-336.52 392.89,-338.41"/>
</g>
<!-- 12&#45;&gt;20 -->
<g id="edge67" class="edge">
<title>12&#45;&gt;20</title>
<path fill="none" stroke="grey" stroke-width="2" d="M402.46,-431.18C423.36,-388.76 481.39,-280.54 558,-216 570.8,-205.21 586.08,-195.32 600.37,-187.07"/>
<polygon fill="grey" stroke="grey" stroke-width="2" points="601.9,-190.22 608.92,-182.29 598.48,-184.11 601.9,-190.22"/>
</g>
<!-- 13&#45;&gt;12 -->
<g id="edge23" class="edge">
<title>13&#45;&gt;12</title>
<path fill="none" stroke="grey" stroke-width="2" d="M611.1,-510.6C571.24,-499.65 507.74,-482.22 459.7,-469.03"/>
<polygon fill="grey" stroke="grey" stroke-width="2" points="460.7,-465.68 450.13,-466.41 458.85,-472.43 460.7,-465.68"/>
</g>
<!-- 15 -->
<g id="node16" class="node">
<title>15</title>
<path fill="none" stroke="#ced856" stroke-width="2" d="M723,-396C723,-396 629,-396 629,-396 623,-396 617,-390 617,-384 617,-384 617,-372 617,-372 617,-366 623,-360 629,-360 629,-360 723,-360 723,-360 729,-360 735,-366 735,-372 735,-372 735,-384 735,-384 735,-390 729,-396 723,-396"/>
<text text-anchor="middle" x="676" y="-375.5" font-family="sans" font-size="10.00">analyze_func_scores</text>
</g>
<!-- 13&#45;&gt;15 -->
<g id="edge45" class="edge">
<title>13&#45;&gt;15</title>
<path fill="none" stroke="grey" stroke-width="2" d="M652.42,-503.02C656.9,-479.44 664.83,-437.73 670.25,-409.25"/>
<polygon fill="grey" stroke="grey" stroke-width="2" points="673.61,-410.29 672.04,-399.81 666.74,-408.98 673.61,-410.29"/>
</g>
<!-- 14&#45;&gt;0 -->
<g id="edge2" class="edge">
<title>14&#45;&gt;0</title>
<path fill="none" stroke="grey" stroke-width="2" d="M768.68,-80.9C834.34,-67.5 964.92,-40.85 1031.27,-27.31"/>
<polygon fill="grey" stroke="grey" stroke-width="2" points="1031.96,-30.74 1041.06,-25.31 1030.56,-23.89 1031.96,-30.74"/>
</g>
<!-- 15&#45;&gt;14 -->
<g id="edge36" class="edge">
<title>15&#45;&gt;14</title>
<path fill="none" stroke="grey" stroke-width="2" d="M735.97,-369.52C803.14,-357.59 909.01,-327.3 958,-252 1007.43,-176.02 863.27,-125.29 781.37,-103.35"/>
<polygon fill="grey" stroke="grey" stroke-width="2" points="782.29,-99.97 771.73,-100.84 780.53,-106.75 782.29,-99.97"/>
</g>
<!-- 15&#45;&gt;17 -->
<g id="edge51" class="edge">
<title>15&#45;&gt;17</title>
<path fill="none" stroke="grey" stroke-width="2" d="M616.24,-361.9C567.29,-349.53 498.69,-332.19 451.75,-320.33"/>
<polygon fill="grey" stroke="grey" stroke-width="2" points="452.9,-317.01 442.35,-317.96 451.19,-323.8 452.9,-317.01"/>
</g>
<!-- 15&#45;&gt;20 -->
<g id="edge61" class="edge">
<title>15&#45;&gt;20</title>
<path fill="none" stroke="grey" stroke-width="2" d="M675.44,-359C674.29,-329.11 670.96,-267.41 662,-216 660.71,-208.62 658.89,-200.76 656.99,-193.42"/>
<polygon fill="grey" stroke="grey" stroke-width="2" points="660.4,-192.62 654.37,-183.9 653.65,-194.47 660.4,-192.62"/>
</g>
<!-- 16 -->
<g id="node17" class="node">
<title>16</title>
<path fill="none" stroke="#56d8a9" stroke-width="2" d="M417.5,-252C417.5,-252 380.5,-252 380.5,-252 374.5,-252 368.5,-246 368.5,-240 368.5,-240 368.5,-228 368.5,-228 368.5,-222 374.5,-216 380.5,-216 380.5,-216 417.5,-216 417.5,-216 423.5,-216 429.5,-222 429.5,-228 429.5,-228 429.5,-240 429.5,-240 429.5,-246 423.5,-252 417.5,-252"/>
<text text-anchor="middle" x="399" y="-231.5" font-family="sans" font-size="10.00">subindex</text>
</g>
<!-- 16&#45;&gt;14 -->
<g id="edge40" class="edge">
<title>16&#45;&gt;14</title>
<path fill="none" stroke="grey" stroke-width="2" d="M430.22,-219.35C470.38,-201.81 542.31,-170.47 604,-144 628.15,-133.64 654.96,-122.25 677.55,-112.7"/>
<polygon fill="grey" stroke="grey" stroke-width="2" points="678.64,-116.04 686.49,-108.92 675.91,-109.59 678.64,-116.04"/>
</g>
<!-- 16&#45;&gt;20 -->
<g id="edge64" class="edge">
<title>16&#45;&gt;20</title>
<path fill="none" stroke="grey" stroke-width="2" d="M430.32,-220.68C434.88,-219.03 439.54,-217.42 444,-216 496.35,-199.36 557.45,-184.01 599.04,-174.16"/>
<polygon fill="grey" stroke="grey" stroke-width="2" points="599.67,-177.61 608.61,-171.92 598.07,-170.79 599.67,-177.61"/>
</g>
<!-- 17&#45;&gt;14 -->
<g id="edge31" class="edge">
<title>17&#45;&gt;14</title>
<path fill="none" stroke="grey" stroke-width="2" d="M380.72,-287.11C364.02,-268.53 344.02,-238.99 359,-216 427.77,-110.44 591.63,-92.26 676.32,-90.23"/>
<polygon fill="grey" stroke="grey" stroke-width="2" points="676.23,-93.73 686.18,-90.08 676.12,-86.73 676.23,-93.73"/>
</g>
<!-- 17&#45;&gt;16 -->
<g id="edge46" class="edge">
<title>17&#45;&gt;16</title>
<path fill="none" stroke="grey" stroke-width="2" d="M399,-287.34C399,-280.75 399,-273.08 399,-265.67"/>
<polygon fill="grey" stroke="grey" stroke-width="2" points="402.5,-265.93 399,-255.93 395.5,-265.93 402.5,-265.93"/>
</g>
<!-- 17&#45;&gt;20 -->
<g id="edge56" class="edge">
<title>17&#45;&gt;20</title>
<path fill="none" stroke="grey" stroke-width="2" d="M423.74,-287.19C437.9,-276.95 456,-263.81 472,-252 493.46,-236.17 496.83,-229.2 520,-216 545.21,-201.63 575.08,-189.04 599.62,-179.74"/>
<polygon fill="grey" stroke="grey" stroke-width="2" points="600.56,-183.12 608.72,-176.36 598.12,-176.56 600.56,-183.12"/>
</g>
<!-- 18&#45;&gt;14 -->
<g id="edge44" class="edge">
<title>18&#45;&gt;14</title>
<path fill="none" stroke="grey" stroke-width="2" d="M256.44,-215.19C269.72,-194.3 294.75,-160.46 326,-144 385.72,-112.55 581.22,-98.51 676.23,-93.42"/>
<polygon fill="grey" stroke="grey" stroke-width="2" points="676.39,-96.92 686.19,-92.9 676.02,-89.92 676.39,-96.92"/>
</g>
<!-- 18&#45;&gt;20 -->
<g id="edge68" class="edge">
<title>18&#45;&gt;20</title>
<path fill="none" stroke="grey" stroke-width="2" d="M312.38,-221.44C393,-207.4 527.09,-184.05 598.95,-171.54"/>
<polygon fill="grey" stroke="grey" stroke-width="2" points="599.38,-175.02 608.63,-169.85 598.18,-168.12 599.38,-175.02"/>
</g>
<!-- 19 -->
<g id="node20" class="node">
<title>19</title>
<path fill="none" stroke="#567bd8" stroke-width="2" d="M937,-252C937,-252 879,-252 879,-252 873,-252 867,-246 867,-240 867,-240 867,-228 867,-228 867,-222 873,-216 879,-216 879,-216 937,-216 937,-216 943,-216 949,-222 949,-228 949,-228 949,-240 949,-240 949,-246 943,-252 937,-252"/>
<text text-anchor="middle" x="908" y="-231.5" font-family="sans" font-size="10.00">make_graphs</text>
</g>
<!-- 19&#45;&gt;14 -->
<g id="edge42" class="edge">
<title>19&#45;&gt;14</title>
<path fill="none" stroke="grey" stroke-width="2" d="M885.33,-215.02C853.99,-190.16 797.26,-145.15 761.44,-116.73"/>
<polygon fill="grey" stroke="grey" stroke-width="2" points="763.87,-114.19 753.86,-110.72 759.52,-119.68 763.87,-114.19"/>
</g>
<!-- 19&#45;&gt;20 -->
<g id="edge66" class="edge">
<title>19&#45;&gt;20</title>
<path fill="none" stroke="grey" stroke-width="2" d="M866.02,-219.8C861.63,-218.49 857.23,-217.2 853,-216 799.91,-200.94 738.6,-185.32 696.96,-174.97"/>
<polygon fill="grey" stroke="grey" stroke-width="2" points="697.92,-171.6 687.37,-172.6 696.23,-178.4 697.92,-171.6"/>
</g>
<!-- 20&#45;&gt;14 -->
<g id="edge39" class="edge">
<title>20&#45;&gt;14</title>
<path fill="none" stroke="grey" stroke-width="2" d="M668.44,-143.34C677.58,-135.44 688.54,-125.96 698.61,-117.26"/>
<polygon fill="grey" stroke="grey" stroke-width="2" points="700.72,-120.07 705.99,-110.88 696.14,-114.77 700.72,-120.07"/>
</g>
</g>
</svg>
